<?xml version="1.0" encoding="utf-8"?>
<!-- Generator: Adobe Illustrator 16.0.0, SVG Export Plug-In . SVG Version: 6.00 Build 0)  -->
<!DOCTYPE svg PUBLIC "-//W3C//DTD SVG 1.1//EN" "http://www.w3.org/Graphics/SVG/1.1/DTD/svg11.dtd">
<svg version="1.1" xmlns="http://www.w3.org/2000/svg" xmlns:xlink="http://www.w3.org/1999/xlink" x="0px" y="0px" width="30px"
	 height="30px" viewBox="0 0 30 30" enable-background="new 0 0 30 30" xml:space="preserve">
<g id="Calque_2">
	<circle fill="#DE9440" cx="15" cy="15" r="15"/>
	<circle fill="#DE9440" cx="-107.5" cy="-18.231" r="8.677"/>
</g>
<g id="Calque_3">
	<path fill="#FFFFFF" d="M-40-5.5c0,1.933-1.567,3.5-3.5,3.5h-7C-52.433-2-54-3.567-54-5.5l0,0c0-1.933,1.567-3.5,3.5-3.5h7
		C-41.567-9-40-7.433-40-5.5L-40-5.5z"/>
	<path fill="#FFFFFF" d="M-46-13c0,1.657-1.343,3-3,3h-8c-1.657,0-3-1.343-3-3v-1c0-1.657,1.343-3,3-3h8c1.657,0,3,1.343,3,3V-13z"
		/>
</g>
<g id="Calque_4">
	<g>
		<circle fill="#FFFFFF" cx="14.939" cy="10.307" r="4.557"/>
		<path fill="#FFFFFF" d="M21.452,15h-3.345c-0.82,1-1.935,1.29-3.168,1.29c-1.233,0-2.348-0.29-3.168-1.29H8.548
			C7.835,15,7,15.731,7,16.444v6.453C7,23.61,7.835,24,8.548,24h12.904C22.166,24,23,23.61,23,22.897v-6.453
			C23,15.731,22.166,15,21.452,15z"/>
	</g>
</g>
</svg>
