<?xml version="1.0" encoding="utf-8"?>
<!-- Generator: Adobe Illustrator 16.0.0, SVG Export Plug-In . SVG Version: 6.00 Build 0)  -->
<!DOCTYPE svg PUBLIC "-//W3C//DTD SVG 1.1//EN" "http://www.w3.org/Graphics/SVG/1.1/DTD/svg11.dtd">
<svg version="1.1" xmlns="http://www.w3.org/2000/svg" xmlns:xlink="http://www.w3.org/1999/xlink" x="0px" y="0px" width="30px"
	 height="30px" viewBox="0 0 30 30" enable-background="new 0 0 30 30" xml:space="preserve">
<g id="Calque_2">
	<circle fill="#DE9440" cx="15" cy="15" r="15"/>
</g>
<g id="Calque_4">
	<g id="Ebene_x0020_1">
		<path fill="#FFFFFF" d="M7.279,20.145c0.001,0.001,0.002,0.001,0.003,0.003h0.751c1.161-1.162,2.322-2.322,3.483-3.484
			c0.251-0.251,0.659-0.251,0.91,0c0.251,0.252,0.251,0.659,0,0.91l-2.574,2.574c-2.052,0,7.957,0,10.294,0l-2.57-2.571
			c-0.255-0.248-0.255-0.661-0.003-0.913c0.251-0.251,0.658-0.251,0.91,0l3.482,3.484h0.752c0-0.002,0.001-0.003,0.003-0.003v-7.938
			l1.286-1.287v9.227c0,0.706-0.58,1.286-1.286,1.286c-9.437,0-6.006,0-15.442,0c-0.708,0-1.287-0.579-1.287-1.286V10.92
			l1.287,1.287V20.145L7.279,20.145z M6.143,9.251C6.36,8.844,6.789,8.566,7.279,8.566h15.442c0.489,0,0.919,0.278,1.135,0.685
			l-1.135,1.136l-6.812,6.811c-0.5,0.499-1.319,0.501-1.82,0L6.143,9.251z M21.436,9.853H8.564L15,16.288L21.436,9.853z"/>
	</g>
</g>
</svg>
