<?xml version="1.0" encoding="utf-8"?>
<!-- Generator: Adobe Illustrator 16.0.0, SVG Export Plug-In . SVG Version: 6.00 Build 0)  -->
<!DOCTYPE svg PUBLIC "-//W3C//DTD SVG 1.1//EN" "http://www.w3.org/Graphics/SVG/1.1/DTD/svg11.dtd">
<svg version="1.1" xmlns="http://www.w3.org/2000/svg" xmlns:xlink="http://www.w3.org/1999/xlink" x="0px" y="0px" width="30px"
	 height="30px" viewBox="0 0 30 30" enable-background="new 0 0 30 30" xml:space="preserve">
<g id="Calque_2">
	<circle fill="#DE9440" cx="15" cy="15" r="15"/>
</g>
<g id="Calque_5">
	<g>
		<path fill-rule="evenodd" clip-rule="evenodd" fill="#FFFFFF" d="M16.324,9.745c-0.188-0.428-0.284-0.878-0.289-1.347
			c-0.01-1.082,0.42-1.962,1.232-2.662c0.214-0.184,0.478-0.172,0.701,0.015c0.57,0.479,0.933,1.087,1.116,1.807
			c0.016,0.064,0.028,0.126,0.043,0.189C19.399,7.53,19.652,7.3,19.93,7.108c0.907-0.627,1.919-0.874,3.014-0.789
			c0.308,0.025,0.499,0.226,0.521,0.532c0.102,1.379-0.311,2.583-1.261,3.594c-0.027,0.03-0.059,0.059-0.083,0.09
			c-0.011,0.01-0.019,0.019-0.037,0.049c0.057,0.019,0.111,0.037,0.164,0.053c0.676,0.19,1.251,0.549,1.699,1.091
			c0.198,0.24,0.188,0.493-0.006,0.726c-0.955,1.14-2.532,1.524-3.903,0.951c-0.028-0.013-0.058-0.021-0.092-0.032
			c-0.009,0.17-0.012,0.337-0.029,0.5c-0.105,1.04-0.542,1.913-1.368,2.556c-1.079,0.842-2.162,1.678-3.275,2.472
			c-2.097,1.495-4.215,2.96-6.328,4.432c-0.213,0.149-0.446,0.274-0.681,0.382c-0.577,0.267-1.098,0.135-1.556-0.268
			C6.5,23.265,6.311,23.054,6.14,22.835c-0.287-0.369-0.342-0.788-0.204-1.233c0.148-0.475,0.441-0.865,0.718-1.267
			c0.59-0.859,1.172-1.723,1.771-2.572c0.993-1.412,1.986-2.818,2.998-4.216c0.555-0.767,1.13-1.518,1.718-2.259
			c0.778-0.977,1.784-1.519,3.051-1.524c0.03,0,0.06,0,0.09-0.003C16.292,9.76,16.302,9.753,16.324,9.745z M8.975,18.861
			c-0.047,0.06-0.087,0.104-0.118,0.149c-0.396,0.572-0.79,1.144-1.182,1.72c-0.228,0.333-0.457,0.668-0.667,1.012
			c-0.139,0.227-0.109,0.382,0.062,0.567c0.112,0.122,0.23,0.241,0.355,0.352c0.14,0.13,0.308,0.162,0.477,0.07
			c0.173-0.095,0.341-0.198,0.5-0.309c1.871-1.308,3.753-2.604,5.61-3.933c1.281-0.915,2.539-1.865,3.792-2.821
			c0.79-0.604,1.147-1.423,1.061-2.422c-0.093-1.058-0.829-1.973-1.848-2.298c-1.044-0.334-2.172-0.02-2.867,0.806
			c-0.275,0.325-0.552,0.655-0.814,0.993c-0.304,0.387-0.594,0.785-0.897,1.189c0.057,0.058,0.103,0.104,0.148,0.149
			c0.479,0.479,0.96,0.959,1.44,1.439c0.133,0.13,0.228,0.276,0.204,0.472c-0.028,0.221-0.138,0.377-0.351,0.453
			c-0.222,0.08-0.411,0.019-0.571-0.142c-0.452-0.45-0.902-0.901-1.352-1.351c-0.045-0.046-0.091-0.091-0.148-0.148
			c-0.246,0.347-0.474,0.682-0.713,1.003c-0.091,0.12-0.091,0.19,0.021,0.294c0.399,0.385,0.785,0.781,1.177,1.173
			c0.131,0.132,0.22,0.283,0.193,0.477c-0.03,0.219-0.15,0.37-0.365,0.443c-0.223,0.073-0.411,0.003-0.568-0.155
			c-0.351-0.348-0.701-0.697-1.05-1.046c-0.044-0.044-0.087-0.087-0.145-0.146c-0.27,0.39-0.524,0.753-0.783,1.126
			c0.056,0.056,0.101,0.101,0.147,0.146c0.306,0.31,0.619,0.61,0.918,0.926c0.267,0.28,0.158,0.71-0.202,0.844
			c-0.21,0.077-0.397,0.034-0.557-0.125C9.583,19.472,9.286,19.172,8.975,18.861z M22.414,7.377
			c-1.936,0.005-3.469,1.74-3.426,3.438C20.894,10.767,22.384,9.162,22.414,7.377z M19.911,12.092
			c0.72,0.689,2.121,0.685,2.882,0.001C21.938,11.359,20.614,11.457,19.911,12.092z M17.611,9.792
			c0.688-0.788,0.675-2.123-0.004-2.874C16.932,7.653,16.908,9.005,17.611,9.792z"/>
	</g>
</g>
</svg>
