<?xml version="1.0" encoding="utf-8"?>
<!-- Generator: Adobe Illustrator 16.0.0, SVG Export Plug-In . SVG Version: 6.00 Build 0)  -->
<!DOCTYPE svg PUBLIC "-//W3C//DTD SVG 1.1//EN" "http://www.w3.org/Graphics/SVG/1.1/DTD/svg11.dtd">
<svg version="1.1" xmlns="http://www.w3.org/2000/svg" xmlns:xlink="http://www.w3.org/1999/xlink" x="0px" y="0px" width="30px"
	 height="30px" viewBox="0 0 30 30" enable-background="new 0 0 30 30" xml:space="preserve">
<g id="Calque_2">
	<circle fill="#DE9440" cx="15" cy="15" r="15"/>
</g>
<g id="Calque_3">
	<path fill-rule="evenodd" clip-rule="evenodd" fill="#FFFFFF" d="M19.574,13.537c-0.764-0.749-1.533-1.49-2.287-2.249
		c-0.654-0.657-0.661-1.552-0.045-2.159c0.595-0.585,1.496-0.561,2.137,0.077c1.593,1.583,3.182,3.168,4.763,4.761
		c0.729,0.733,0.737,1.542,0.017,2.271c-1.575,1.598-3.162,3.187-4.752,4.771c-0.542,0.54-1.167,0.655-1.787,0.361
		c-0.548-0.259-0.912-0.858-0.805-1.477c0.052-0.303,0.199-0.634,0.406-0.859c0.695-0.756,1.44-1.471,2.164-2.201
		c0.052-0.053,0.099-0.108,0.194-0.215c-0.203-0.01-0.338-0.021-0.476-0.021c-2.1-0.001-4.201,0.008-6.301-0.013
		c-0.324-0.004-0.686-0.084-0.962-0.245c-0.605-0.354-0.808-0.998-0.609-1.664c0.185-0.622,0.726-1.025,1.413-1.027
		c2.14-0.004,4.281-0.002,6.42-0.002c0.152,0,0.306,0,0.459,0C19.541,13.61,19.557,13.573,19.574,13.537z"/>
	<path fill-rule="evenodd" clip-rule="evenodd" fill="#FFFFFF" d="M7.938,13.851c-0.002,1.916-0.007,3.832-0.008,5.748
		c-0.001,1.01,0.386,1.441,1.397,1.508c0.406,0.025,0.816-0.01,1.223-0.015c0.624-0.007,1.001,0.331,1,0.894
		c-0.002,0.552-0.353,0.89-0.958,0.894c-0.669,0.003-1.35,0.058-2.006-0.043c-1.386-0.211-2.417-1.484-2.434-2.944
		c-0.02-1.704-0.007-3.409-0.007-5.114c0-0.309,0-0.618,0-0.926"/>
	<path fill-rule="evenodd" clip-rule="evenodd" fill="#FFFFFF" d="M7.938,16.148c-0.002-1.915-0.007-3.832-0.008-5.748
		C7.929,9.392,8.316,8.959,9.328,8.894c0.406-0.026,0.816,0.009,1.223,0.014c0.624,0.007,1.001-0.331,1-0.893
		c-0.002-0.552-0.353-0.89-0.958-0.894c-0.669-0.002-1.35-0.057-2.006,0.042C7.201,7.375,6.17,8.649,6.153,10.109
		c-0.02,1.705-0.007,3.409-0.007,5.114c0,0.309,0,0.617,0,0.926"/>
</g>
</svg>
